<?xml version="1.0" encoding="utf-8"?>
<!-- Generator: Adobe Illustrator 27.5.0, SVG Export Plug-In . SVG Version: 6.00 Build 0)  -->
<svg version="1.1" id="Capa_1" xmlns="http://www.w3.org/2000/svg" xmlns:xlink="http://www.w3.org/1999/xlink" x="0px" y="0px"
	 viewBox="0 0 2122 2122" style="enable-background:new 0 0 2122 2122;" xml:space="preserve">
<g>
	<path style="fill:#FBE14C;" d="M1182.798,1278.646c-2.066,13.126-9.671,24.772-18.597,34.616
		c-23.746,26.187-58.104,42.119-93.359,44.728c-35.26,2.607-71.109-7.839-100.278-27.815c-21.988-15.057-40.677-36.073-48.93-61.413
		c-0.427-1.314-0.682-2.598-0.945-3.885c-6.798-0.589-13.658-1.104-20.385-1.776c-14.577-1.465-28.928-3.176-43.145-5.021
		L697.376,1846.51c27.995-68.394,175.926-120.586,354.304-120.586c179.395,0,328.044,52.779,354.824,121.744l-154.188-588.071
		c-22.641,2.749-45.754,4.998-69.251,6.768C1183.492,1270.428,1183.445,1274.54,1182.798,1278.646z"/>
	<path style="fill:#716593;" d="M1081.127,329.895c-0.03-0.824-0.078-1.665-0.097-2.48c-0.439-18.412-0.877-36.821-1.316-55.233
		c-0.419-17.676-0.833-35.35-1.262-53.023c-0.074-3.083-0.113-6.208-0.148-9.347c-4.1,1.036-8.371,1.647-12.792,1.647
		c-4.816,0-9.459-0.706-13.888-1.929c0.077,2.485,0.149,4.962,0.202,7.417c0.4,18.414,0.814,36.823,1.223,55.235
		c0.39,17.673,0.779,35.349,1.169,53.023c0.037,1.621,0.029,3.287,0.027,4.949c6.183-0.298,12.393-0.481,18.651-0.481
		C1075.658,329.674,1078.38,329.836,1081.127,329.895z"/>
	<path style="fill:#FAB50A;" d="M1447.358,1274.242c34.377,8.243,71.596,5.198,103.596-9.827c32-15.026,58.402-42.175,71.235-75.118
		c4.823-12.38,7.771-25.975,5.013-38.972c-0.12-0.561-0.286-1.103-0.425-1.656c-64.545,37.073-148.004,67.588-244.178,88.88
		C1399.268,1256.362,1422.84,1268.363,1447.358,1274.242z"/>
	<path style="fill:#FAB50A;" d="M970.564,1330.176c29.169,19.976,65.019,30.422,100.278,27.815
		c35.254-2.609,69.612-18.541,93.359-44.728c8.926-9.844,16.531-21.491,18.597-34.616c0.647-4.107,0.694-8.219,0.267-12.282
		c-6.904,0.519-13.802,1.049-20.772,1.481c-33.178,2.069-67.118,3.137-101.633,3.137c-47.944,0-94.684-2.183-139.97-6.103
		c0.263,1.286,0.517,2.571,0.945,3.885C929.887,1294.103,948.577,1315.119,970.564,1330.176z"/>
	<path style="fill:#A7D7D5;" d="M925.405,707.598c2.737,20.294,6.769,40.971,3.787,61.131
		c79.488,16.266,161.865,20.053,242.244,10.414c53.226-6.365,105.923-19.201,156.525-36.827
		c24.214-8.435,47.938-18.073,71.102-29.043c13.085-6.188,26.258-12.169,39.163-18.688c5.766-2.939,11.106-5.676,16.559-7.858
		c-11.15-168.276-131.072-306.827-290.092-345.969c-3.473-0.848-6.942-1.648-10.435-2.405c-23.629-5.111-48.095-7.926-73.131-8.459
		c-2.748-0.059-5.469-0.221-8.23-0.221c-6.258,0-12.469,0.183-18.651,0.481c-7.071,0.342-14.1,0.844-21.071,1.568
		c-48.041,59.952-82.312,130.964-99.469,205.775C920.956,593.128,917.707,651.011,925.405,707.598z"/>
	<path style="fill:#8F82BC;" d="M1474.121,1083.611c-0.088-1.513-0.2-3.003-0.331-4.516c-3.849-47.489-19.294-93.286-37.564-137.281
		c-26.105-62.881-59.58-107.37-110.574-150.396c-1.385,0.485-2.773,0.949-4.163,1.414
		c-107.038,35.446-222.665,48.755-334.711,35.226c-26.056-3.137-51.935-7.41-77.527-12.952
		c-7.629,11.192-16.468,21.787-24.903,32.313c-61.755,76.95-110.196,167.833-126.424,264.389
		c132.229,25.324,268.934,32.291,402.677,23.655c3.98-0.267,7.965-0.534,11.945-0.827c2.626-0.176,5.255-0.374,7.879-0.576
		c9.213-0.689,18.426-1.446,27.639-2.29c4.385-0.404,8.744-0.804,13.129-1.248c26.056-2.582,52.073-5.766,77.974-9.613
		c3.27-0.49,6.563-0.981,9.837-1.493c3.27-0.507,6.563-1.02,9.838-1.553c3.27-0.538,6.541-1.072,9.811-1.627
		c6.562-1.093,13.085-2.246,19.626-3.451c6.476-1.179,12.927-2.401,19.403-3.671c3.693-0.714,7.394-1.467,11.086-2.225
		c8.452-1.734,16.89-3.559,25.325-5.452c1.424-0.31,2.844-0.646,4.248-0.955c2.698-0.624,5.408-1.248,8.102-1.893
		c3.227-0.757,6.45-1.536,9.656-2.315l1.136-0.267c2.844-0.689,5.671-1.399,8.52-2.113c5.878-1.472,11.751-3.004,17.604-4.562
		c6.942-1.825,13.862-3.74,20.759-5.719"/>
	<path style="fill:#D3EAEA;" d="M1191.763,478.835c35.069,28.154,71.912,56.081,95.132,94.595
		c9.949,16.499,17.33,34.855,30.519,48.896c27.591,29.378,76.755,19.225,71.215-25.065c-5.364-42.908-29.944-86.842-55.659-120.721
		c-16.234-21.388-35.211-40.714-56.438-57.167c-13.233-10.253-27.566-19.559-43.64-24.236c-16.068-4.68-34.183-4.29-48.697,4.044
		c-14.519,8.334-24.37,25.527-21.326,41.988C1165.819,457.081,1179.14,468.703,1191.763,478.835z"/>
	<path style="fill:#716593;" d="M1769.423,963.888c0-4.694-0.245-9.366-0.736-13.996c-37.631,25.281-77.129,47.712-117.874,67.271
		c-8.686,4.168-17.442,8.167-26.231,12.085c-0.89,0.396-1.765,0.831-2.656,1.224c-2.001,0.891-4.023,1.781-6.028,2.646
		c-1.599,0.695-3.206,1.354-4.807,2.042c-2.28,0.978-4.561,1.948-6.849,2.91c-1.598,0.672-3.191,1.375-4.792,2.036
		c-2.178,0.912-4.359,1.803-6.541,2.694c-1.622,0.658-3.235,1.291-4.852,1.938c-1.519,0.61-3.038,1.215-4.559,1.818
		c-2.861,1.164-5.727,2.279-8.593,3.387c-3.666,1.42-7.341,2.823-11.034,4.204l-0.443,0.177c-3.546,1.313-7.083,2.625-10.641,3.894
		c-3.693,1.36-7.411,2.672-11.124,3.985c-4.385,1.536-8.796,3.051-13.199,4.539c-1.736,0.58-3.482,1.128-5.218,1.702
		c-3.199,1.062-6.406,2.1-9.616,3.135c-1.86,0.599-3.705,1.228-5.571,1.816c-1.612,0.513-3.239,0.982-4.855,1.487
		c-4.181,1.306-8.37,2.59-12.567,3.85c-1.724,0.517-3.44,1.075-5.165,1.582c-3.783,1.115-7.565,2.23-11.352,3.297
		c-6.897,1.979-13.817,3.894-20.759,5.719c-5.853,1.558-11.726,3.09-17.604,4.562c-2.849,0.714-5.676,1.424-8.52,2.113l-1.136,0.267
		c-3.206,0.779-6.429,1.558-9.656,2.315c-2.695,0.645-5.405,1.27-8.102,1.893c-1.403,0.31-2.824,0.646-4.248,0.955
		c-8.434,1.893-16.873,3.718-25.325,5.452c-3.692,0.757-7.392,1.511-11.086,2.225c-6.476,1.27-12.927,2.491-19.403,3.671
		c-6.541,1.205-13.065,2.358-19.626,3.451c-3.27,0.555-6.541,1.089-9.811,1.627c-3.275,0.533-6.568,1.046-9.838,1.553
		c-3.274,0.512-6.567,1.003-9.837,1.493c-25.901,3.848-51.918,7.031-77.974,9.613c-4.385,0.444-8.744,0.844-13.129,1.248
		c-9.213,0.844-18.426,1.601-27.639,2.29c-2.625,0.202-5.253,0.4-7.879,0.576c-3.98,0.293-7.965,0.559-11.945,0.827
		c-133.743,8.636-270.448,1.669-402.677-23.655c-3.554,21.163-5.556,42.593-5.826,64.221c-0.266,21.718,1.227,43.372,2.982,65.021
		c32.696,6.788,66.838,12.46,102.079,17.033c14.217,1.845,28.568,3.556,43.145,5.021c6.727,0.671,13.587,1.187,20.385,1.776
		c45.286,3.92,92.027,6.103,139.97,6.103c34.516,0,68.455-1.067,101.633-3.137c6.971-0.432,13.869-0.961,20.772-1.481
		c23.497-1.769,46.61-4.019,69.251-6.768c45.376-5.509,88.941-12.903,130.146-22.016c0.046-0.011,0.091-0.022,0.138-0.032
		c96.174-21.292,179.633-51.807,244.178-88.88c0.008-0.005,0.016-0.009,0.024-0.014
		C1716.33,1097.253,1769.423,1033.252,1769.423,963.888z"/>
	<path style="fill:#ACA1CF;" d="M1451.089,736.042c-13.086,7.63-26.323,14.661-40.033,21.047
		c-27.794,12.995-56.299,24.524-85.363,34.314c-0.013,0.005-0.028,0.009-0.041,0.014c50.994,43.026,84.469,87.515,110.574,150.396
		c18.27,43.995,33.715,89.793,37.564,137.281c0.131,1.513,0.244,3.003,0.331,4.516c5.522-1.573,11.018-3.227,16.515-4.878
		c4.197-1.26,8.386-2.544,12.567-3.85c3.481-1.086,6.957-2.185,10.427-3.303c3.209-1.035,6.416-2.073,9.616-3.135
		c20.286-6.732,40.383-14.011,60.252-21.888c1.522-0.603,3.04-1.208,4.559-1.818c5.413-2.175,10.806-4.404,16.185-6.668
		c2.287-0.962,4.569-1.932,6.849-2.91c4.511-1.935,9.005-3.913,13.49-5.912c8.789-3.918,17.545-7.917,26.231-12.085
		c40.745-19.559,80.244-41.99,117.874-67.271c0.001,0,0.001,0,0.001-0.001c-0.022-0.216-0.065-0.43-0.09-0.646
		c-0.307-2.846-0.692-5.682-1.178-8.507c-0.194-1.125-0.464-2.24-0.686-3.361c-0.378-1.912-0.737-3.825-1.195-5.726
		c-0.314-1.307-0.707-2.603-1.06-3.905c-0.46-1.703-0.9-3.408-1.425-5.102c-0.425-1.372-0.923-2.734-1.39-4.101
		c-0.55-1.613-1.084-3.227-1.693-4.831c-0.529-1.395-1.125-2.779-1.696-4.167c-0.644-1.562-1.275-3.124-1.973-4.677
		c-0.631-1.407-1.323-2.805-1.999-4.204c-0.733-1.518-1.46-3.037-2.245-4.547c-0.734-1.412-1.52-2.816-2.3-4.221
		c-0.822-1.483-1.644-2.966-2.515-4.44c-0.832-1.407-1.709-2.806-2.586-4.206c-0.911-1.455-1.829-2.91-2.789-4.357
		c-0.929-1.402-1.897-2.796-2.872-4.189c-0.998-1.427-2.006-2.852-3.051-4.27c-1.026-1.393-2.084-2.78-3.154-4.164
		c-1.084-1.401-2.183-2.798-3.312-4.19c-1.12-1.382-2.265-2.758-3.429-4.13c-1.169-1.378-2.36-2.751-3.574-4.119
		c-1.212-1.367-2.441-2.73-3.698-4.088c-1.25-1.352-2.527-2.698-3.821-4.041c-1.304-1.355-2.621-2.707-3.969-4.052
		c-1.332-1.328-2.696-2.648-4.068-3.966c-1.393-1.336-2.792-2.671-4.227-3.998c-1.419-1.312-2.876-2.613-4.336-3.914
		c-1.473-1.312-2.944-2.623-4.458-3.924c-1.501-1.291-3.046-2.571-4.589-3.851c-1.557-1.292-3.107-2.586-4.705-3.867
		c-1.587-1.272-3.221-2.532-4.849-3.794c-1.631-1.265-3.25-2.532-4.921-3.786c-1.679-1.259-3.41-2.504-5.128-3.751
		c-1.699-1.234-3.38-2.474-5.119-3.696c-1.778-1.252-3.613-2.485-5.433-3.725c-1.754-1.196-3.486-2.399-5.277-3.584
		c-1.918-1.268-3.899-2.517-5.859-3.772c-1.765-1.13-3.5-2.269-5.297-3.388c-2.154-1.34-4.375-2.657-6.576-3.981
		c-1.683-1.013-3.33-2.037-5.041-3.041c-3.323-1.949-6.721-3.872-10.146-5.785c-1.581-0.883-3.184-1.758-4.787-2.634
		c-3.144-1.717-6.296-3.431-9.523-5.118c-1.59-0.832-3.235-1.644-4.846-2.469c-2.686-1.375-5.361-2.753-8.1-4.107
		c-1.789-0.884-3.627-1.747-5.438-2.621c-2.634-1.272-5.257-2.547-7.939-3.8c-1.876-0.876-3.797-1.733-5.695-2.6
		c-2.69-1.227-5.372-2.457-8.107-3.665c-1.933-0.853-3.905-1.689-5.862-2.532c-2.766-1.193-5.528-2.388-8.34-3.561
		c-1.982-0.827-3.996-1.638-6-2.456c-2.854-1.164-5.711-2.327-8.61-3.471c-2.012-0.794-4.054-1.574-6.086-2.358
		c-2.957-1.139-5.918-2.276-8.918-3.395c-2.03-0.757-4.082-1.502-6.131-2.248c-3.079-1.122-6.167-2.238-9.29-3.337
		c-2.016-0.71-4.049-1.41-6.083-2.11c-3.226-1.111-6.468-2.213-9.739-3.3c-1.992-0.661-3.994-1.315-6.003-1.968
		c-1.808-0.588-3.641-1.163-5.462-1.744C1471.84,724.438,1461.491,729.997,1451.089,736.042z"/>
	<path style="fill:#716593;" d="M1399.063,713.274c-23.164,10.969-46.888,20.608-71.102,29.043
		c-50.602,17.626-103.298,30.462-156.525,36.827c-80.38,9.639-162.756,5.852-242.244-10.414c-0.207,1.403-0.447,2.806-0.735,4.209
		c-1.58,7.832-4.23,15.263-7.613,22.385l-0.022,0.021c-3.252,6.833-7.212,13.396-11.571,19.76
		c25.592,5.542,51.471,9.815,77.527,12.952c112.046,13.529,227.673,0.22,334.711-35.226c1.389-0.465,2.778-0.929,4.163-1.414
		c0.013-0.005,0.028-0.01,0.041-0.014c29.064-9.79,57.569-21.318,85.363-34.314c13.71-6.386,26.947-13.418,40.033-21.047
		c10.402-6.045,20.751-11.604,28.912-19.709c0.012-0.013,0.026-0.022,0.039-0.034c3.43-3.378,6.476-7.229,8.968-11.769
		c5.323-9.661-1.291-22.631-12.837-22.411c-7.948,0.18-14.755,1.962-21.386,4.608c-5.453,2.182-10.793,4.919-16.559,7.858
		C1425.322,701.104,1412.149,707.086,1399.063,713.274z"/>
	<path style="fill:#7597B4;" d="M772.418,718.705c26.878,11.838,54.448,22.166,82.488,30.91
		c24.37,7.608,49.177,13.977,74.286,19.115c2.982-20.16-1.05-40.837-3.787-61.131c-7.698-56.587-4.45-114.47,8.301-170.102
		c17.157-74.811,51.427-145.822,99.469-205.775c-181.893,18.736-326.024,164.92-341.606,347.75
		c13.977,5.254,26.642,12.948,39.922,19.76C744.933,706.135,758.575,712.629,772.418,718.705z"/>
	<path style="fill:#6D5DA5;" d="M884.348,847.418c8.435-10.525,17.274-21.12,24.903-32.313
		c-29.773-6.407-59.195-14.511-88.099-24.434c-26.861-9.235-53.21-19.92-78.844-32.089c-25.815-12.238-55.032-24.812-75.951-44.572
		c-1.424-1.339-2.56-2.784-3.469-4.316c-88.37,26.012-162.471,60.438-216.15,100.626c-59.142,44.306-93.482,95.578-94.795,150.298
		c123.661,74.458,262.19,123.683,405.981,151.189C774.152,1015.251,822.593,924.368,884.348,847.418z"/>
	<path style="fill:#B67A2C;" d="M435.945,1112.922c-0.186,0.259-0.347,0.531-0.526,0.794c-0.385,0.565-0.771,1.13-1.122,1.714
		c-0.197,0.327-0.366,0.668-0.551,1.001c-0.301,0.54-0.606,1.077-0.876,1.633c-0.181,0.368-0.333,0.752-0.499,1.128
		c-0.239,0.54-0.482,1.078-0.692,1.633c-0.154,0.406-0.28,0.827-0.419,1.242c-0.182,0.546-0.365,1.091-0.52,1.652
		c-0.121,0.441-0.215,0.894-0.317,1.344c-0.128,0.559-0.254,1.117-0.355,1.689c-0.08,0.468-0.136,0.947-0.197,1.425
		c-0.076,0.58-0.146,1.162-0.19,1.758c-0.038,0.491-0.052,0.992-0.068,1.493c-0.012,0.386-0.051,0.758-0.051,1.149
		c0.001,0.431,0.008,0.865,0.024,1.304c0.955,26.637,13.107,51.982,30.104,72.522c22.524,27.24,54.118,47.155,88.723,54.388
		c2.286,0.476,4.587,0.887,6.894,1.25c0.757,0.119,1.521,0.203,2.28,0.309c1.554,0.219,3.108,0.432,4.669,0.599
		c0.911,0.097,1.825,0.164,2.737,0.243c1.42,0.125,2.84,0.245,4.263,0.326c0.969,0.056,1.939,0.087,2.909,0.124
		c1.371,0.051,2.743,0.092,4.114,0.105c0.434,0.004,0.866,0.033,1.3,0.033c0.415,0,0.829-0.038,1.246-0.042
		c2.439-0.021,4.877-0.098,7.311-0.242c0.453-0.027,0.906-0.036,1.358-0.067c2.816-0.194,5.624-0.483,8.422-0.841
		c0.701-0.09,1.398-0.198,2.097-0.298c2.302-0.329,4.594-0.714,6.877-1.154c0.617-0.119,1.234-0.224,1.849-0.351
		c2.755-0.571,5.493-1.222,8.207-1.956c0.582-0.158,1.157-0.337,1.737-0.502c2.246-0.639,4.474-1.336,6.683-2.086
		c0.675-0.229,1.352-0.452,2.023-0.692c2.658-0.95,5.291-1.966,7.883-3.08c0.368-0.158,0.725-0.336,1.09-0.497
		c2.265-0.997,4.496-2.065,6.7-3.188c0.672-0.343,1.344-0.687,2.01-1.041c2.511-1.335,4.996-2.722,7.416-4.224
		c9.304-5.783,18.092-12.969,24.012-22.071c-98.582-27.816-180.231-65.959-236.706-110.911
		C437.146,1111.312,436.53,1112.108,435.945,1112.922z"/>
	<path style="fill:#5A4D85;" d="M757.925,1111.807c-143.792-27.506-282.32-76.73-405.981-151.189
		c-0.02,1.093-0.042,2.182-0.042,3.27c0,53.119,31.134,103.079,85.896,146.649c56.475,44.951,138.124,83.094,236.706,110.911
		c25.745,7.255,52.649,13.818,80.577,19.601c-1.755-21.649-3.248-43.303-2.982-65.021
		C752.369,1154.399,754.37,1132.969,757.925,1111.807z"/>
	<path style="fill:#5A4D85;" d="M742.308,758.582c25.635,12.17,51.983,22.855,78.844,32.089
		c28.904,9.923,58.325,18.026,88.099,24.434c4.359-6.365,8.319-12.927,11.571-19.76l0.022-0.021
		c3.383-7.122,6.033-14.554,7.613-22.385c0.288-1.403,0.528-2.806,0.735-4.209c-25.109-5.138-49.917-11.507-74.286-19.115
		c-28.04-8.744-55.61-19.072-82.488-30.91c-13.843-6.076-27.485-12.57-40.927-19.472c-13.28-6.812-25.945-14.506-39.922-19.76
		c-1.398-0.534-2.827-1.046-4.247-1.511c-1.122-0.373-2.227-0.629-3.316-0.799c-0.368-0.057-0.722-0.053-1.085-0.089
		c-0.618-0.061-1.241-0.152-1.846-0.152c-0.074,0-0.141,0.024-0.216,0.025c-1.317,0.016-2.597,0.175-3.835,0.457
		c-0.298,0.068-0.58,0.176-0.872,0.258c-0.953,0.268-1.88,0.602-2.772,1.011c-0.341,0.157-0.678,0.313-1.009,0.489
		c-0.943,0.499-1.846,1.068-2.704,1.709c-0.156,0.117-0.326,0.209-0.478,0.331c-0.987,0.781-1.896,1.662-2.745,2.604
		c-0.223,0.248-0.42,0.513-0.635,0.771c-0.62,0.751-1.197,1.539-1.725,2.362c-0.201,0.312-0.402,0.618-0.587,0.939
		c-0.605,1.046-1.152,2.127-1.599,3.251c-0.027,0.069-0.065,0.131-0.092,0.2c-0.461,1.193-0.8,2.429-1.066,3.676
		c-0.074,0.349-0.119,0.697-0.178,1.048c-0.159,0.956-0.252,1.919-0.285,2.885c-0.009,0.23-0.067,0.457-0.068,0.687
		c0,0.185,0.028,0.367,0.033,0.552c0.008,0.36,0.038,0.718,0.064,1.077c0.046,0.62,0.122,1.235,0.226,1.85
		c0.061,0.358,0.123,0.715,0.203,1.071c0.145,0.644,0.338,1.278,0.549,1.909c0.103,0.304,0.187,0.612,0.305,0.911
		c0.362,0.919,0.781,1.823,1.297,2.697c0.909,1.532,2.045,2.977,3.469,4.316C687.275,733.77,716.493,746.344,742.308,758.582z"/>
	<path style="fill:#FAB50A;" d="M1078.304,209.812c22.597-5.712,39.344-26.118,39.344-50.49c0-28.792-23.342-52.134-52.136-52.134
		s-52.136,23.342-52.136,52.134c0,23.977,16.207,44.122,38.248,50.208c4.429,1.223,9.072,1.929,13.888,1.929
		C1069.934,211.459,1074.204,210.848,1078.304,209.812z"/>
	<path style="fill:#FFE5AA;" d="M1046.394,147.522c3.688-8.536,12.38-13.293,15.22-21.812c1.048-3.131-1.666-5.469-4.424-5.81
		c-12.531-1.549-23.196,15.438-26.587,25.749c-4.638,14.107-2.889,31.44,6.583,43.079c4.346,5.342,13.661-0.404,11.508-6.697
		C1044.572,169.99,1040.981,160.039,1046.394,147.522z"/>
	<path style="fill:#FFE5AA;" d="M1061.313,1338.086c13.505,6.389,32.492-1.313,45.384-6.823
		c17.013-7.272,32.346-18.112,45.447-31.121c7.049-7.004-4.419-18.219-10.821-10.819c-11.176,12.926-24.005,22.928-39.786,29.701
		c-12.711,5.457-29.033,4.928-40.224,12.455C1059.135,1332.943,1058.531,1336.77,1061.313,1338.086z"/>
	<path style="fill:#FFE5AA;" d="M1512.518,1258.907c16.331,6.911,41.369-10.254,54.133-19.476
		c13.964-10.085,36.166-27.489,37.588-45.993c0.341-4.463-5.13-7.064-8.687-4.984c-8.034,4.702-11.805,12.777-17.881,19.713
		c-6.811,7.775-14.621,14.743-23.094,20.653c-8.482,5.912-17.7,10.916-27.332,14.692c-7.352,2.884-11.498,3.382-16.248,9.591
		C1509.721,1254.768,1510.588,1258.088,1512.518,1258.907z"/>
	<path style="fill:#564789;" d="M1132.313,896.985c-34.519-30.67-87.698-28.48-124.092-1.866
		c-50.188,36.701-57.379,115.038-17.681,161.932c33.481,39.547,90.718,48.395,133.583,18.551
		c22.538-15.688,39.021-40.427,43.216-69.881C1172.84,967.122,1162.228,923.563,1132.313,896.985z"/>
	<path style="fill:#EC66A2;" d="M1090.389,900.267c-4.697-1.734-9.369-2.892-13.953-3.493
		c-42.144-5.586-78.173,34.158-86.164,74.327c-5.384,26.994,0.137,55.164,15.888,74.704c10.641,13.196,25.973,22.453,45.754,24.746
		c46.485,5.362,80.424-25.793,90.748-64.49C1153.722,964.578,1131.583,915.512,1090.389,900.267z"/>
	<path style="fill:#F4ADCB;" d="M1043.695,920.142c-11.883,6.283-20.677,18.141-27.089,29.735
		c-5.749,10.399-13.072,24.672-10.612,36.733c1.028,5.02,7.698,5.006,10.173,1.33c6.372-9.481,7.576-22.439,13.403-32.663
		c5.91-10.361,14.061-18.743,20.784-28.475C1053.293,922.557,1047.7,918.028,1043.695,920.142z"/>
	<path style="fill:#A7D7D5;" d="M1063.242,1195.277c-6.027,0.271-11.128,4.889-11.128,11.125v1.664
		c0,5.82,5.12,11.396,11.128,11.128c6.027-0.271,11.128-4.889,11.128-11.128v-1.664
		C1074.37,1200.583,1069.249,1195.007,1063.242,1195.277z"/>
	<path style="fill:#A7D7D5;" d="M859.827,1181.898c-0.556-0.553-1.111-1.109-1.661-1.664c-4.122-4.119-11.674-4.426-15.737,0
		c-4.078,4.443-4.4,11.338,0,15.737c0.555,0.553,1.111,1.109,1.661,1.664c4.122,4.119,11.673,4.426,15.737,0
		C863.905,1193.192,864.226,1186.298,859.827,1181.898z"/>
	<path style="fill:#A7D7D5;" d="M656.865,1136.98c-4.443-4.075-11.337-4.397-15.737,0c-0.555,0.555-1.111,1.111-1.661,1.664
		c-4.122,4.122-4.429,11.671,0,15.737c4.439,4.075,11.338,4.397,15.732,0c0.556-0.555,1.111-1.111,1.666-1.664
		C660.987,1148.595,661.293,1141.046,656.865,1136.98z"/>
	<path style="fill:#A7D7D5;" d="M484.115,1074.396l-1.033,1.03c-10.139,10.139,5.593,25.878,15.737,15.734l1.028-1.028
		C509.986,1079.991,494.258,1064.252,484.115,1074.396z"/>
	<path style="fill:#A7D7D5;" d="M1252.27,1176.832c-1.106,0.555-2.217,1.111-3.323,1.664c-5.218,2.609-7.104,10.401-3.995,15.223
		c3.439,5.337,9.642,6.782,15.225,3.992c1.106-0.555,2.217-1.108,3.327-1.663c5.218-2.609,7.099-10.4,3.991-15.223
		C1264.055,1175.489,1257.853,1174.042,1252.27,1176.832z"/>
	<path style="fill:#A7D7D5;" d="M1447.543,1140.376c-14.319,0-14.343,22.253,0,22.253
		C1461.862,1162.629,1461.887,1140.376,1447.543,1140.376z"/>
	<path style="fill:#A7D7D5;" d="M1617.234,1094.42h1.661c5.822,0,11.396-5.118,11.128-11.125
		c-0.268-6.029-4.887-11.128-11.128-11.128h-1.661c-5.822,0-11.396,5.118-11.128,11.128
		C1606.379,1089.321,1610.997,1094.42,1617.234,1094.42z"/>
	<path style="fill:#564789;" d="M623.32,790.552c-1.939-0.141-3.922-0.215-5.896-0.215c-13.384,0-27.162,3.174-42.119,9.706
		c-39.942,17.435-72.151,52.48-86.168,93.744c-6.826,20.097-7.591,37.362-2.339,52.774c9.091,26.66,32.005,41.951,62.865,41.951
		c15.586,0,32.984-4.148,47.722-11.383c36.151-17.737,65.072-48.906,79.357-85.516c11.172-28.635,9.846-55.037-3.727-74.338
		C662.302,802.043,643.725,792.055,623.32,790.552z"/>
	<path style="fill:#EC66A2;" d="M621.688,808.837c-12.843-0.945-25.666,2.538-37.471,7.691
		c-34.387,15.013-61.934,44.979-74.002,80.509c-4.205,12.377-6.563,26.061-2.343,38.436c11.712,34.345,54.066,30.355,79.722,17.768
		c30.733-15.082,55.946-41.644,68.424-73.625c6.753-17.308,9.491-38.253-1.198-53.45
		C647.408,815.631,634.536,809.782,621.688,808.837z"/>
	<path style="fill:#F4ADCB;" d="M618.989,822.45c-18.821-7.306-45.155,10.051-58.875,21.956
		c-18.226,15.818-30.197,35.391-37.929,58.063c-2.616,7.691,9.578,12.943,13.223,5.574c9.296-18.799,23.313-35.274,40.171-47.717
		c13.632-10.061,35.259-15.667,45.924-28.346C624.422,828.51,623.145,824.062,618.989,822.45z"/>
	<path style="fill:#564789;" d="M1485.916,876.759c14.285,36.609,43.206,67.779,79.357,85.518
		c14.743,7.233,32.136,11.381,47.722,11.381c30.86,0,53.773-15.289,62.865-41.949c5.252-15.416,4.487-32.677-2.339-52.775
		c-14.017-41.266-46.226-76.312-86.168-93.746c-14.958-6.529-28.736-9.705-42.119-9.705c-1.973,0-3.956,0.073-5.896,0.217
		c-20.404,1.5-38.981,11.491-49.695,26.721C1476.07,821.721,1474.745,848.123,1485.916,876.759z"/>
	<path style="fill:#EC66A2;" d="M1575.066,938.386c25.656,12.587,68.015,16.58,79.722-17.768
		c4.219-12.375,1.861-26.056-2.344-38.436c-12.068-35.53-39.615-65.495-74.002-80.506c-11.805-5.152-24.628-8.638-37.471-7.693
		c-12.848,0.945-25.72,6.797-33.13,17.33c-10.684,15.199-7.952,36.141-1.199,53.45
		C1519.119,896.742,1544.333,923.304,1575.066,938.386z"/>
	<path style="fill:#F4ADCB;" d="M1587.08,845.473c16.853,12.439,30.874,28.921,40.17,47.715c3.611,7.291,15.869,2.2,13.223-5.571
		c-7.742-22.702-19.673-42.222-37.929-58.066c-13.832-12-40-29.281-58.875-21.956c-4.156,1.615-5.433,6.061-2.514,9.53
		C1551.772,829.748,1573.536,835.475,1587.08,845.473z"/>
	<path style="fill:#FAB50A;" d="M1051.68,1725.924c-178.378,0-326.309,52.192-354.304,120.586
		c-2.158,5.274-3.676,10.634-4.366,16.084c-0.001,0.005-0.003,0.009-0.003,0.013c-0.311,2.459-0.469,4.933-0.469,7.422
		c0,79.586,160.794,144.102,359.142,144.102c198.353,0,359.147-64.516,359.147-144.102c0-2.665-0.211-5.31-0.566-7.94
		c-0.016-0.114-0.048-0.226-0.064-0.339c-0.672-4.759-1.896-9.458-3.692-14.082
		C1379.724,1778.703,1231.075,1725.924,1051.68,1725.924z"/>
</g>
</svg>
